
		<svg xmlns="http://www.w3.org/2000/svg" xmlns:xlink="http://www.w3.org/1999/xlink" version="1.1" width="3014.1576215195846" height="843.0863614912694">
			
			<g transform="scale(0.7078810759792354) translate(10, 10)">
				

<g id="SvgjsG3909">
</g>
<g id="1551120861226" rel="main_text">
	<path class="st0" d="M1976.9,416.6l121.1,85v91.3l-49.7,52.4h-64.6l-49.7-52.4V531h40.7v45.6l26.7,28h29.8l26.7-28v-53.8l-121.6-85   v-85l48.4-50.6h63.3l48.4,50.6v52h-40.7v-35.3l-25.3-26.7h-28.5l-24.9,26.7V416.6z M1846.3,304.5l50.2,338.5h-41.6l-13.1-88.1   h-70.5l-13.1,88.1h-41.6l50.2-338.5H1846.3z M1835.9,513.8l-25.3-168.1h-8.6l-24.9,168.1H1835.9z M1440,304.5l50.2,338.5h-41.6   l-13.1-88.1h-70.5l-13.1,88.1h-41.6l50.2-338.5H1440z M1429.6,513.8l-25.3-168.1h-8.6l-24.9,168.1H1429.6z M1236.6,468.6l33.9,33.4   v90.4l-50.6,50.6h-108.5V360.6l17.2-10.4V347h-41.1v-42h123.4l50.6,51.1v82.7L1236.6,468.6z M1153,451h42.9l24-28.5v-49.3   l-26.2-26.2H1153V451z M1228.9,521l-28.9-28.5h-47v108.9h49.7l26.2-26.2V521z M1633.9,575.7l-24.9,29.4h-26.2l-24.9-29.4v-57.4   h-41.1v72.8l44.7,52h69.2l44.7-52V305h-41.6V575.7z M3651.5,513.3l60.1,129.7h-45.2l-52.9-113.9h-35.7V643h-41.1V304.5h99.4   l52,52.4V474L3651.5,513.3z M3646.9,373.7l-27.6-27.6h-41.6V488h41.1l28-30.3V373.7z M3421,300l51.1,51.1v239.1l-51.1,54.2h-65.1   l-50.6-54.2V351.1l51.1-51.1H3421z M3430.9,367.8l-27.1-27.1H3373l-27.1,27.1v206.5l27.6,29.4h29.8l27.6-29.4V367.8z M3722.4,341.1   h59.7V643h41.1V341.1h60.1v-37.1h-160.9V341.1z M3963.3,416.6v-47l24.9-26.7h28.5l25.3,26.7v35.3h40.7v-52l-48.4-50.6H3971   l-48.4,50.6v85l121.6,85v53.8l-26.7,28h-29.8l-26.7-28V531h-40.7v61.9l49.7,52.4h64.6l49.7-52.4v-91.3L3963.3,416.6z M2922.9,438.8   l-12.2,116.2h-1.4l-12.7-118l-19.4-132.4h-80.9v338.1h41.1V344.7h5l41.1,269.4h52.4l41.1-269.4h5v297.8h41.1V304.5h-80.9   L2922.9,438.8z M2429.8,304.5h-41.1V643h143.3v-39.3h-102.1V304.5z M3194.1,304.5l52.4,51.5v121.1l-52,54.7H3129V643h-41.1V304.5   H3194.1z M3204.9,373.2l-27.6-27.6H3129v145.1h47.9l28-29.8V373.2z M2714.5,341.6h31.6v-37.5h-105.8v37.5h50.2v3.2l-17.2,10.4   v250.4h-36.6V643h114.3v-37.5h-36.6V341.6z M2273,300l51.1,51.1v239.1l-51.1,54.2h-65.1l-50.6-54.2V351.1l51.1-51.1H2273z    M2282.9,367.8l-27.1-27.1H2225l-27.1,27.1v206.5l27.6,29.4h29.8l27.6-29.4V367.8z" style="fill: #fff;"/>
</g>
<g id="1551120862796" rel="slogan_text">
	<path class="st0" d="M1488.4,703.5l-29.2,196.9h24.2l7.6-51.3h41l7.6,51.3h24.2l-29.2-196.9H1488.4z M1494.4,825.2l14.5-97.8h5   l14.7,97.8H1494.4z M1716.6,876.5h60.5v23.9h-84.4V703.5h80.7v23.9h-56.8V791h47.6V815h-47.6V876.5z M3186.3,818.1v53.1l-28.9,30.5   h-37.6l-28.9-30.5v-36h23.7v26.6l15.5,16.3h17.4l15.5-16.3v-31.3l-70.7-49.4v-49.4l28.1-29.4h36.8l28.1,29.4v30.2h-23.7v-20.5   l-14.7-15.5h-16.6l-14.5,15.5v27.3L3186.3,818.1z M3007,876.5h60.5v23.9h-84.4V703.5h80.7v23.9H3007V791h47.6V815H3007V876.5z    M1573.6,703.2h93.6v21.6h-35v175.6h-23.9V724.8h-34.7V703.2z M2788.3,703.2h23.9v197.2h-23.9V703.2z M1287.8,703.2h23.9v166.7   l-28.1,31.6h-37.1l-28.4-31.6V703.2h23.9V861l15,16.6h15.8l15-16.6V703.2z M1437.1,802.1V734l-30.2-30.5H1349v196.9h23.9v-66.3   h20.8l30.8,66.3h26.3l-35-75.5L1437.1,802.1z M1413.2,792.6l-16.3,17.6H1373v-82.6h24.2l16,16V792.6z M1153.4,701.6l28.7,30v29.7   h-23.9v-20.2l-15-15.5h-17.1l-14.7,15.5V861l15,16.8h16.6l15.2-16.8v-21.8l23.9-0.3v31l-28.7,31.8h-37.6l-28.4-31.8V731.6l28.7-30   H1153.4z M2469.6,876.5h60.5v23.9h-84.4V703.5h80.7v23.9h-56.8V791h47.6V815h-47.6V876.5z M2252.7,877.5h59.4v22.9h-83.3V703.5   h23.9V877.5z M2361,877.5h59.4v22.9h-83.3V703.5h23.9V877.5z M2734.9,703.5h24.5l-18.4,198h-41.8l-7.1-43.4l-10.3-90.2h-1.1   l-10.3,89.7l-7.1,43.9h-42.9l-15-168l8.9-5.5v-1.8h-23.9v-22.6h36.5l13.9,176.2h2.6l23.9-157.2h27.1l23.9,157.2h2.4L2734.9,703.5z    M2921.3,704h23.9v196.4h-25.5l-30.8-96.8l-17.1-58.1h-0.8l2.9,60.2v94.7h-23.9V704h32.3l22.3,70.5l20.2,73.6h0.8l-4.5-74.9V704z    M2127.8,703.5l-29.2,196.9h24.2l7.6-51.3h41l7.6,51.3h24.2l-29.2-196.9H2127.8z M2133.9,825.2l14.5-97.8h5l14.7,97.8H2133.9z    M2061.3,703.2h24.2l-30,198.2h-46.8L1984,733.7l8.9-6v-1.6h-24.5v-22.9h35.2l25.8,175.4h5.5L2061.3,703.2z M1804.7,704v196.4h62.8   l29.4-29.7V733.4l-29.4-29.4H1804.7z M1873,861l-15.5,15.5h-28.9V727.9h28.9l15.5,15.3V861z" style="fill: #fff;"/>
</g>
<g id="1551120864288" rel="symbol">
	<path class="st0" d="M545.7,169.8c-245.4,0-445.1,199.7-445.1,445.1c0,245.4,199.7,445.1,445.1,445.1s445.1-199.7,445.1-445.1   C990.8,369.4,791.1,169.8,545.7,169.8z M545.7,1055.5c-242.9,0-440.6-197.6-440.6-440.6c0-242.9,197.6-440.6,440.6-440.6   s440.6,197.6,440.6,440.6C986.3,857.8,788.6,1055.5,545.7,1055.5z" style="fill: #fff;"/>
	<path class="st0" d="M545.7,194.5c-231.8,0-420.4,188.6-420.4,420.4c0,231.8,188.6,420.4,420.4,420.4s420.4-188.6,420.4-420.4   C966.1,383.1,777.5,194.5,545.7,194.5z M840.2,758.7H610.9l-65.2,68.4l-65.2-68.4H251.2v-29.5h242l52.6,54.8l52.6-54.8h242V758.7z    M414.5,699.7l38.4-92.8l92.8-38.4l92.8,38.4l38.4,92.8l0,0h-29.1l-29.9-72.1l-72.2-29.9l-72.2,29.9l-29.9,72.1L414.5,699.7   L414.5,699.7z M754.5,699.8h-36.4l72.6-101.4L667.6,578l-20.4-123.1l-101.4,72.6l-101.4-72.6L423.9,578l-123.1,20.4l72.6,101.4   h-36.5l-88-122.9l149.1-24.7L422.8,403l122.9,88l122.9-88l24.7,149.1l149.1,24.7L754.5,699.8z" style="fill: #fff;"/>
</g>

			</g>
		</svg>
	